# xmcd
#
# Track frame offsets:
#	150
#	19537
#	37231
#	59605
#	80129
#	98069
#	116609
#	134856
#	158890
#	177740
#	198409
#	215170
#
# Disc length: 3197 seconds
#
# Revision: 0
# Processed by: cddbd v1.5.2PL0 Copyright (c) Steve Scherf et al.
# Submitted via: EZCDAudioConverter 1.0.8.1
#
DISCID=bc0c7b0c
DTITLE=เลอฌอ - Special 2: Lerchor's Melody
DYEAR=2008
DGENRE=Instrumental
TTITLE0=ไปไหนดี
TTITLE1=เดือน
TTITLE2=ปิ๊ดจะลิว
TTITLE3=ฤดูกาลใหม่
TTITLE4=ดอกไม้ขาว
TTITLE5=ใจเข้าใจ
TTITLE6=วกวน
TTITLE7=รอวันลาจาก
TTITLE8=สาวหริภุญชัย
TTITLE9=ห้วยน้อยดอยหลวง
TTITLE10=ลอยไปลอยมา
TTITLE11=ฮับบ่าได้
EXTD=
EXTT0=
EXTT1=
EXTT2=
EXTT3=
EXTT4=
EXTT5=
EXTT6=
EXTT7=
EXTT8=
EXTT9=
EXTT10=
EXTT11=
PLAYORDER=
